<svg width="276" height="420" fill="none" xmlns="http://www.w3.org/2000/svg"><path d="M263.5 460.359L229.056 694c-24.112-41.556-55.112-212.873-55.112-212.873L77.5 515.741c8.611-20.789 31-138.454 31-138.454L3.444 337.481l91.278-50.189L0 134.993l115.389 41.536S124 51.899 122.278 34.613l91.278 107.302S258.333 51.92 275.556 0l36.166 164.414L465 126.339c-10.333 19.038-93 103.841-93 103.841l84.389 41.536c-8.611 12.114-80.945 46.728-80.945 46.728l63.723 102.11c-20.667 5.192-87.834-19.038-87.834-19.038l46.5 147.107L263.5 460.359z" fill="#38A7CA"/></svg>