<svg width="522" height="1601" fill="none" xmlns="http://www.w3.org/2000/svg"><path d="M609.733 1062.01L530.03 1601c-55.793-95.87-127.526-491.08-127.526-491.08l-223.171 79.85c19.926-47.96 71.734-319.401 71.734-319.401L7.97 778.541l211.215-115.783L0 311.416l267.007 95.821s19.926-287.508 15.941-327.387l211.215 247.537S597.778 119.776 637.63 0l83.688 379.289L1076 291.454c-23.91 43.918-215.2 239.551-215.2 239.551l195.27 95.82c-19.92 27.948-187.3 107.798-187.3 107.798l147.45 235.559c-47.82 11.978-203.242-43.918-203.242-43.918l107.6 339.366-310.845-203.62z" fill="#FF6830"/></svg>