<svg width="478" height="829" fill="none" xmlns="http://www.w3.org/2000/svg"><path d="M261.504 696.801L212.945 829l-50.584-152.537s-64.747 20.338-93.072-16.271c-28.325-36.609 0-124.063 0-124.063s-50.585-26.425-56.654-99.658c-6.068-73.232 36.42-99.657 36.42-99.657s-66.77-30.493-44.513-99.658c22.257-69.165 93.073-81.353 93.073-81.353S99.638 82.6 148.198 50.044c48.56-32.556 91.05 0 91.05 0s60.699-81.353 131.516-36.609C441.58 58.18 399.09 143.6 399.09 143.6S478 163.939 478 233.089c0 79.319-78.91 107.792-78.91 107.792s48.56 34.576 40.467 97.624c-8.616 67.116-76.886 91.522-76.886 91.522s58.676 69.15 14.163 136.267c-40.467 61.015-115.33 30.507-115.33 30.507z" fill="#839E11"/><path d="M239 593.28h-54.4l11.64-6.16v22.04h-14.28v-48.2h14.28V583l-11.64-6.16H239v16.44zm0-33.773h-40.04l-.44-14.72h30.8v-3.4c0-1.066-.133-2.026-.4-2.88a3.761 3.761 0 00-1.56-2c-.773-.506-1.84-.76-3.2-.76-.96 0-1.76.12-2.4.36-.667.24-1.2.587-1.6 1.04-.4.427-.68.947-.84 1.56-.16.587-.24 1.24-.24 1.96v5.96l-9.68 3.48v-11.24c0-3.786.453-7.013 1.36-9.68.88-2.693 2.373-4.746 4.48-6.16 2.107-1.413 4.987-2.12 8.64-2.12 3.04 0 5.693.56 7.96 1.68 2.267 1.094 4.027 2.827 5.28 5.2 1.253 2.347 1.88 5.414 1.88 9.2v22.52zm0-42.84h-40.04l-.4-14.92H239v14.92zm0-37.55h-40.04l-.44-14.72H239v14.72zm-14.32-8.92h-11.4v-21.52h11.4v21.52zm14.32-15.64h-40.04v-14.76H239v14.76zm1.16-43.401c0 5.387-.907 9.774-2.72 13.16-1.813 3.36-4.307 5.827-7.48 7.4-3.2 1.574-6.88 2.36-11.04 2.36-4.133 0-7.787-.72-10.96-2.16-3.2-1.466-5.693-3.666-7.48-6.6-1.813-2.933-2.72-6.64-2.72-11.12 0-3.813.653-7.053 1.96-9.72 1.28-2.693 3.253-4.746 5.92-6.16 2.64-1.44 6.04-2.16 10.2-2.16 1.093 0 2.067.04 2.92.12.853.054 1.693.147 2.52.28l-4.4 12.64c-.32-.053-.653-.093-1-.12-.373-.026-.707-.04-1-.04-2.24 0-4 .467-5.28 1.4-1.307.934-1.96 2.134-1.96 3.6 0 1.094.347 2.08 1.04 2.96.667.854 1.667 1.547 3 2.08 1.307.507 2.947.76 4.92.76h2.52c1.92 0 3.547-.36 4.88-1.08 1.307-.746 2.307-1.893 3-3.44.693-1.546 1.04-3.56 1.04-6.04 0-.96-.093-2.133-.28-3.52a39.828 39.828 0 00-.92-4.36 22.788 22.788 0 00-1.52-4.12l12.36-.48c.453 1.04.867 2.267 1.24 3.68.373 1.414.667 3.014.88 4.8.24 1.787.36 3.747.36 5.88zm-18.88 17.24h-6.48l-.64-23.24 1.44-8.6h5.68v31.84zm18.88-73.704c0 3.84-.573 7.147-1.72 9.92-1.147 2.774-2.707 5.067-4.68 6.88a19.396 19.396 0 01-6.8 3.96c-2.56.854-5.24 1.28-8.04 1.28-4 0-7.587-.8-10.76-2.4-3.2-1.6-5.733-4-7.6-7.2-1.867-3.226-2.8-7.266-2.8-12.12 0-3.733.547-6.973 1.64-9.72 1.067-2.746 2.573-5.026 4.52-6.84 1.92-1.813 4.16-3.16 6.72-4.04 2.56-.88 5.32-1.32 8.28-1.32 4.053 0 7.68.827 10.88 2.48 3.2 1.627 5.733 4.054 7.6 7.28 1.84 3.2 2.76 7.147 2.76 11.84zm-12 .04c0-1.44-.427-2.64-1.28-3.6-.88-.96-2.013-1.666-3.4-2.12-1.413-.48-2.933-.72-4.56-.72-1.973 0-3.64.28-5 .84-1.36.56-2.387 1.334-3.08 2.32-.693.96-1.04 2.08-1.04 3.36 0 1.44.4 2.667 1.2 3.68.8.987 1.893 1.747 3.28 2.28 1.36.507 2.907.76 4.64.76 1.627 0 3.147-.253 4.56-.76 1.387-.533 2.52-1.306 3.4-2.32.853-1.013 1.28-2.253 1.28-3.72zm8.48-53.056h-35.32l8.8-5.68v19.56l-8.8-6.28c1.627.027 3.253.08 4.88.16a2904.043 2904.043 0 0010 .32c1.893.054 3.6.227 5.12.52 1.52.267 2.907.654 4.16 1.16a16.422 16.422 0 013.44 1.84l-.96 13.64c-.427-.586-1.16-1.2-2.2-1.84-1.04-.64-2.507-1.2-4.4-1.68-1.893-.506-4.32-.84-7.28-1-2.693-.16-5.267-.306-7.72-.44-2.48-.133-4.947-.266-7.4-.4v-34.24h37.68v14.36zm12.92 28.84h-21.72v-49.08h21.72v12.76l-12.24.6 1.68-2.12v26.6l-1.68-2.12 12.24.6v12.76zM239 276.851h-40.04l-.44-14.72H239v14.72zm-14.32-8.92h-11.4v-21.52h11.4v21.52zm14.32-15.64h-40.04v-14.76H239v14.76zm1.04-31.48c0 2.346-.493 4.333-1.48 5.96a9.929 9.929 0 01-4.12 3.72c-1.733.826-3.68 1.24-5.84 1.24-2.32 0-4.24-.414-5.76-1.24-1.547-.827-2.787-1.88-3.72-3.16-.96-1.307-1.68-2.68-2.16-4.12-.507-1.44-.867-2.774-1.08-4l-1.8-10.68c-.987-.054-1.787.186-2.4.72-.613.533-1.067 1.346-1.36 2.44-.293 1.093-.44 2.44-.44 4.04 0 .906.08 1.906.24 3 .133 1.066.347 2.2.64 3.4.267 1.173.613 2.36 1.04 3.56.427 1.2.933 2.4 1.52 3.6l-12.44.64c-.32-1.014-.667-2.174-1.04-3.48a47.466 47.466 0 01-1-4.32 53.076 53.076 0 01-.76-5.04 47.323 47.323 0 01-.32-5.6c0-3.44.507-6.387 1.52-8.84.987-2.454 2.547-4.32 4.68-5.6 2.133-1.307 4.907-1.96 8.32-1.96H239v12.32l-5.6 1v1a15.155 15.155 0 013.28 2.64c.987 1.066 1.787 2.333 2.4 3.8.64 1.44.96 3.093.96 4.96zm-11.36-6.6c0-.64-.147-1.28-.44-1.92a6.688 6.688 0 00-1.32-1.84 8.524 8.524 0 00-1.96-1.52h-5.88c.24.266.467.586.68.96.187.346.387.853.6 1.52.213.64.467 1.52.76 2.64.16.666.427 1.28.8 1.84.347.533.8.96 1.36 1.28.533.32 1.2.48 2 .48 1.2 0 2.067-.36 2.6-1.08.533-.72.8-1.507.8-2.36z" fill="#fff"/></svg>