<svg width="478" height="829" fill="none" xmlns="http://www.w3.org/2000/svg"><path d="M261.504 696.801L212.945 829l-50.584-152.537s-64.747 20.338-93.072-16.271c-28.325-36.609 0-124.063 0-124.063s-50.585-26.425-56.654-99.658c-6.068-73.232 36.42-99.657 36.42-99.657s-66.77-30.493-44.513-99.658c22.257-69.165 93.073-81.353 93.073-81.353S99.638 82.6 148.198 50.044c48.56-32.556 91.05 0 91.05 0s60.699-81.353 131.516-36.609C441.58 58.18 399.09 143.6 399.09 143.6S478 163.939 478 233.089c0 79.319-78.91 107.792-78.91 107.792s48.56 34.576 40.467 97.624c-8.616 67.116-76.886 91.522-76.886 91.522s58.676 69.15 14.163 136.267c-40.467 61.015-115.33 30.507-115.33 30.507z" fill="#839E11"/></svg>